<svg width="32" height="32" viewBox="0 0 32 32" fill="none" xmlns="http://www.w3.org/2000/svg">
  <rect width="32" height="32" rx="6" fill="#3B82F6"/>
  <path d="M11 9C11 7.89543 11.8954 7 13 7H19C20.1046 7 21 7.89543 21 9V15C21 16.1046 20.1046 17 19 17H13C11.8954 17 11 16.1046 11 15V9Z" fill="white"/>
  <path d="M11 19C11 17.8954 11.8954 17 13 17H19C20.1046 17 21 17.8954 21 19V23C21 24.1046 20.1046 25 19 25H13C11.8954 25 11 24.1046 11 23V19Z" fill="white"/>
  <circle cx="16" cy="12" r="1.5" fill="#3B82F6"/>
  <circle cx="16" cy="21" r="1.5" fill="#3B82F6"/>
</svg> 